<?xml version="1.0" encoding="utf-8"?>
<svg version="1.1" id="Layer_1" xmlns="http://www.w3.org/2000/svg" xmlns:xlink="http://www.w3.org/1999/xlink" x="0px" y="0px"
	 viewBox="0 0 4999.984 5000" enable-background="new 0 0 4999.984 5000" xml:space="preserve">
<g>
	<polygon points="3139.308,1543.196 3139.308,1618.871 3234.218,1713.781 3273.197,1674.803 3140.222,1541.828 2966.483,1469.863
		2945.388,1520.791 3069.393,1572.156 	"/>
	<polygon points="3456.796,1860.684 3427.836,1930.599 3479.201,2054.604 3530.129,2033.51 3458.164,1859.77 3325.19,1726.796
		3286.211,1765.775 3381.121,1860.684 	"/>
	<polygon points="3628.619,2275.502 3575.109,2329.012 3575.109,2463.235 3630.233,2463.235 3630.233,2275.181 3558.268,2101.442
		3507.34,2122.537 3558.704,2246.542 	"/>
	<polygon points="3628.619,2724.498 3558.704,2753.458 3507.34,2877.463 3558.268,2898.558 3630.233,2724.819 3630.233,2536.765
		3575.109,2536.765 3575.109,2670.988 	"/>
	<polygon points="3456.796,3139.316 3381.121,3139.316 3286.211,3234.226 3325.19,3273.204 3458.164,3140.23 3530.129,2966.49
		3479.201,2945.396 3427.836,3069.401 	"/>
	<polygon points="3139.308,3456.803 3069.393,3427.844 2945.388,3479.209 2966.483,3530.137 3140.222,3458.172 3273.197,3325.197
		3234.218,3286.219 3139.308,3381.128 	"/>
	<polygon points="2724.49,3628.627 2670.98,3575.116 2536.757,3575.116 2536.757,3630.241 2724.811,3630.24 2898.551,3558.275
		2877.455,3507.347 2753.45,3558.712 	"/>
	<polygon points="2275.494,3628.627 2246.535,3558.712 2122.529,3507.347 2101.434,3558.275 2275.174,3630.24 2463.228,3630.241
		2463.228,3575.116 2329.005,3575.116 	"/>
	<polygon points="1860.677,3456.803 1860.677,3381.128 1765.767,3286.219 1726.788,3325.197 1859.762,3458.172 2033.502,3530.137
		2054.597,3479.209 1930.591,3427.844 	"/>
	<polygon points="1543.189,3139.316 1572.148,3069.401 1520.783,2945.396 1469.855,2966.49 1541.821,3140.23 1674.795,3273.204
		1713.774,3234.226 1618.864,3139.316 	"/>
	<polygon points="1371.365,2724.498 1424.876,2670.988 1424.876,2536.765 1369.752,2536.765 1369.752,2724.819 1441.717,2898.558
		1492.645,2877.463 1441.28,2753.458 	"/>
	<polygon points="1371.365,2275.502 1441.28,2246.542 1492.645,2122.537 1441.717,2101.442 1369.752,2275.181 1369.752,2463.235
		1424.876,2463.235 1424.876,2329.012 	"/>
	<polygon points="1543.189,1860.684 1618.864,1860.684 1713.774,1765.775 1674.795,1726.796 1541.821,1859.77 1469.855,2033.51
		1520.783,2054.604 1572.148,1930.599 	"/>
	<polygon points="1860.677,1543.196 1930.591,1572.156 2054.597,1520.791 2033.502,1469.863 1859.762,1541.828 1726.788,1674.803
		1765.767,1713.781 1860.677,1618.871 	"/>
	<polygon points="2275.494,1371.373 2329.005,1424.884 2463.228,1424.884 2463.228,1369.759 2275.174,1369.76 2101.434,1441.725
		2122.529,1492.653 2246.535,1441.288 	"/>
	<polygon points="2724.49,1371.373 2753.45,1441.288 2877.455,1492.653 2898.551,1441.725 2724.811,1369.76 2536.757,1369.759
		2536.757,1424.884 2670.98,1424.884 	"/>
	<polygon points="3267.35,1351.568 3596.431,1351.568 3635.411,1312.588 3596.431,1273.607 3319.442,1273.607 3213.442,1017.702
		3162.512,996.607 3141.416,1047.537 	"/>
	<polygon points="3648.425,1732.642 3952.456,1858.576 4003.386,1837.48 3982.29,1786.55 3726.385,1680.551 3726.385,1403.561
		3687.405,1364.581 3648.425,1403.561 	"/>
	<polygon points="3854.66,2230.54 4087.356,2463.235 4142.482,2463.235 4142.482,2408.109 3946.621,2212.248 4052.62,1956.343
		4031.524,1905.413 3980.594,1926.509 	"/>
	<polygon points="3854.66,2769.46 3980.594,3073.491 4031.524,3094.587 4052.62,3043.657 3946.621,2787.752 4142.482,2591.891
		4142.482,2536.765 4087.356,2536.765 	"/>
	<polygon points="3648.425,3267.358 3648.425,3596.439 3687.405,3635.419 3726.385,3596.439 3726.385,3319.449 3982.29,3213.45
		4003.386,3162.52 3952.456,3141.424 	"/>
	<polygon points="3267.35,3648.432 3141.416,3952.463 3162.512,4003.394 3213.442,3982.298 3319.442,3726.393 3596.431,3726.393
		3635.411,3687.412 3596.431,3648.432 	"/>
	<polygon points="2769.453,3854.668 2536.757,4087.364 2536.757,4142.49 2591.884,4142.49 2787.745,3946.629 3043.649,4052.628
		3094.58,4031.532 3073.484,3980.602 	"/>
	<polygon points="2230.532,3854.668 1926.501,3980.602 1905.405,4031.532 1956.335,4052.628 2212.24,3946.629 2408.101,4142.49
		2463.228,4142.49 2463.227,4087.364 	"/>
	<polygon points="1732.634,3648.432 1403.553,3648.432 1364.573,3687.412 1403.553,3726.393 1680.543,3726.393 1786.542,3982.298
		1837.472,4003.394 1858.568,3952.463 	"/>
	<polygon points="1351.56,3267.358 1047.529,3141.424 996.599,3162.52 1017.695,3213.45 1273.6,3319.449 1273.6,3596.439
		1312.58,3635.419 1351.56,3596.439 	"/>
	<polygon points="1145.324,2769.46 912.629,2536.765 857.502,2536.765 857.502,2591.891 1053.364,2787.752 947.364,3043.657
		968.46,3094.587 1019.39,3073.491 	"/>
	<polygon points="1145.324,2230.54 1019.39,1926.509 968.46,1905.413 947.364,1956.343 1053.364,2212.248 857.502,2408.109
		857.502,2463.235 912.629,2463.235 	"/>
	<polygon points="1351.56,1732.642 1351.56,1403.561 1312.58,1364.581 1273.6,1403.561 1273.6,1680.551 1017.695,1786.55
		996.599,1837.48 1047.529,1858.576 	"/>
	<polygon points="1732.634,1351.568 1858.568,1047.537 1837.472,996.607 1786.542,1017.702 1680.543,1273.607 1403.553,1273.607
		1364.573,1312.588 1403.553,1351.568 	"/>
	<polygon points="2230.532,1145.332 2463.227,912.636 2463.228,857.51 2408.101,857.51 2212.24,1053.371 1956.335,947.372
		1905.405,968.468 1926.501,1019.398 	"/>
	<polygon points="2769.453,1145.332 3073.484,1019.398 3094.58,968.468 3043.649,947.372 2787.745,1053.371 2591.884,857.51
		2536.757,857.51 2536.757,912.636 	"/>
<!--	<polygon points="3651.557,1328.733 3651.557,1348.436 3671.26,1348.436 	"/>-->
<!--	<polygon points="4012.124,1858.575 4004.583,1876.778 4022.787,1884.318 	"/>-->
<!--	<polygon points="4142.482,2486.068 4128.55,2500 4142.482,2513.932 	"/>-->
<!--	<polygon points="4022.787,3115.682 4004.583,3123.222 4012.124,3141.425 	"/>-->
<!--	<polygon points="3671.26,3651.564 3651.557,3651.564 3651.557,3671.267 	"/>-->
<!--	<polygon points="3141.417,4012.131 3123.214,4004.591 3115.674,4022.794 	"/>-->
<!--	<polygon points="2513.924,4142.49 2499.992,4128.558 2486.06,4142.49 	"/>-->
<!--	<polygon points="1884.31,4022.794 1876.77,4004.591 1858.567,4012.131 	"/>-->
<!--	<polygon points="1348.428,3671.267 1348.428,3651.564 1328.725,3651.564 	"/>-->
<!--	<polygon points="987.861,3141.425 995.401,3123.222 977.198,3115.682 	"/>-->
<!--	<polygon points="857.502,2513.932 871.434,2500 857.502,2486.068 	"/>-->
<!--	<polygon points="977.198,1884.318 995.401,1876.778 987.861,1858.575 	"/>-->
<!--	<polygon points="1328.725,1348.436 1348.428,1348.436 1348.428,1328.733 	"/>-->
<!--	<polygon points="1858.567,987.869 1876.77,995.409 1884.31,977.206 	"/>-->
<!--	<polygon points="2486.06,857.51 2499.992,871.442 2513.924,857.51 	"/>-->
<!--	<polygon points="3115.674,977.206 3123.214,995.409 3141.417,987.869 	"/>-->
<!--	<polygon points="3635.411,1312.588 3651.557,1328.733 3651.557,1296.442 	"/>-->
<!--	<polygon points="3094.58,968.468 3115.674,977.206 3103.317,947.373 	"/>-->
<!--	<polygon points="2463.228,857.51 2486.06,857.51 2463.228,834.677 	"/>-->
<!--	<polygon points="1837.472,996.607 1858.567,987.869 1828.735,975.512 	"/>-->
<!--	<polygon points="1312.58,1364.581 1328.725,1348.436 1296.435,1348.436 	"/>-->
<!--	<polygon points="968.46,1905.413 977.198,1884.318 947.365,1896.675 	"/>-->
<!--	<polygon points="857.502,2536.765 857.502,2513.932 834.67,2536.765 	"/>-->
<!--	<polygon points="996.599,3162.52 987.861,3141.425 975.504,3171.258 	"/>-->
<!--	<polygon points="1364.573,3687.412 1348.428,3671.267 1348.428,3703.558 	"/>-->
<!--	<polygon points="1905.405,4031.532 1884.31,4022.794 1896.667,4052.627 	"/>-->
<!--	<polygon points="2536.757,4142.49 2513.924,4142.49 2536.757,4165.323 	"/>-->
<!--	<polygon points="3162.512,4003.394 3141.417,4012.131 3171.25,4024.488 	"/>-->
<!--	<polygon points="3687.405,3635.419 3671.26,3651.564 3703.55,3651.564 	"/>-->
<!--	<polygon points="4031.524,3094.587 4022.787,3115.682 4052.619,3103.325 	"/>-->
<!--	<polygon points="4142.482,2463.235 4142.482,2486.068 4165.315,2463.235 	"/>-->
<!--	<polygon points="4003.386,1837.48 4012.124,1858.575 4024.48,1828.742 	"/>-->
<!--	<polygon points="3687.405,1364.581 3671.26,1348.436 3703.55,1348.436 	"/>-->
<!--	<polygon points="3162.512,996.607 3141.417,987.869 3171.25,975.512 	"/>-->
<!--	<polygon points="2536.757,857.51 2513.924,857.51 2536.757,834.677 	"/>-->
<!--	<polygon points="1905.405,968.468 1884.31,977.206 1896.667,947.373 	"/>-->
<!--	<polygon points="1364.573,1312.588 1348.428,1328.733 1348.428,1296.442 	"/>-->
<!--	<polygon points="996.599,1837.48 987.861,1858.575 975.504,1828.742 	"/>-->
<!--	<polygon points="857.502,2463.235 857.502,2486.068 834.67,2463.235 	"/>-->
<!--	<polygon points="968.46,3094.587 977.198,3115.682 947.365,3103.325 	"/>-->
<!--	<polygon points="1312.58,3635.419 1328.725,3651.564 1296.435,3651.564 	"/>-->
<!--	<polygon points="1837.472,4003.394 1858.567,4012.131 1828.735,4024.488 	"/>-->
<!--	<polygon points="2463.228,4142.49 2486.06,4142.49 2463.228,4165.323 	"/>-->
<!--	<polygon points="3094.58,4031.532 3115.674,4022.794 3103.317,4052.627 	"/>-->
<!--	<polygon points="3635.411,3687.412 3651.557,3671.267 3651.557,3703.558 	"/>-->
<!--	<polygon points="4003.386,3162.52 4012.124,3141.425 4024.48,3171.258 	"/>-->
<!--	<polygon points="4142.482,2536.765 4142.482,2513.932 4165.315,2536.765 	"/>-->
<!--	<polygon points="4031.524,1905.413 4022.787,1884.318 4052.619,1896.675 	"/>-->
<!--	<polygon points="3648.425,1351.568 3596.431,1351.568 3273.197,1674.803 3325.19,1726.796 3648.425,1403.561 	"/>-->
<!--	<polygon points="4000.491,1878.473 3952.456,1858.576 3530.129,2033.51 3558.268,2101.442 3980.594,1926.509 	"/>-->
<!--	<polygon points="4124.121,2500 4087.356,2463.235 3630.233,2463.235 3630.233,2536.765 4087.356,2536.765 	"/>-->
<!--	<polygon points="4000.491,3121.527 3980.594,3073.491 3558.268,2898.558 3530.129,2966.49 3952.456,3141.424 	"/>-->
<!--	<polygon points="3648.425,3648.432 3648.425,3596.439 3325.19,3273.204 3273.197,3325.197 3596.431,3648.432 	"/>-->
<!--	<polygon points="3121.519,4000.499 3141.416,3952.463 2966.483,3530.137 2898.551,3558.275 3073.484,3980.602 	"/>-->
<!--	<polygon points="2499.992,4124.128 2536.757,4087.364 2536.757,3630.241 2463.228,3630.241 2463.227,4087.364 	"/>-->
<!--	<polygon points="1878.465,4000.499 1926.501,3980.602 2101.434,3558.275 2033.502,3530.137 1858.568,3952.463 	"/>-->
<!--	<polygon points="1351.56,3648.432 1403.553,3648.432 1726.788,3325.197 1674.795,3273.204 1351.56,3596.439 	"/>-->
<!--	<polygon points="999.493,3121.527 1047.529,3141.424 1469.855,2966.49 1441.717,2898.558 1019.39,3073.491 	"/>-->
<!--	<polygon points="875.864,2500 912.629,2536.765 1369.752,2536.765 1369.752,2463.235 912.629,2463.235 	"/>-->
<!--	<polygon points="999.493,1878.473 1019.39,1926.509 1441.717,2101.442 1469.855,2033.51 1047.529,1858.576 	"/>-->
<!--	<polygon points="1351.56,1351.568 1351.56,1403.561 1674.795,1726.796 1726.788,1674.803 1403.553,1351.568 	"/>-->
<!--	<polygon points="1878.465,999.501 1858.568,1047.537 2033.502,1469.863 2101.434,1441.725 1926.501,1019.398 	"/>-->
<!--	<polygon points="2499.992,875.872 2463.227,912.636 2463.228,1369.759 2536.757,1369.759 2536.757,912.636 	"/>-->
<!--	<polygon points="3121.519,999.501 3073.484,1019.398 2898.551,1441.725 2966.483,1469.863 3141.416,1047.537 	"/>-->
<!--	<polygon points="4186.64,761.359 4241.762,706.236 3941.695,706.236 3996.817,761.359 	"/>-->
<!--	<polygon points="3392.902,248.253 3422.734,176.232 3145.508,291.063 3217.529,320.895 	"/>-->
<!--	<polygon points="2463.227,77.955 2463.227,0 2251.047,212.18 2329.002,212.18 	"/>-->
<!--	<polygon points="1539.149,276.392 1509.317,204.371 1394.486,481.597 1466.507,451.765 	"/>-->
<!--	<polygon points="761.351,813.353 706.228,758.23 706.228,1058.298 761.351,1003.175 	"/>-->
<!--	<polygon points="248.245,1607.09 176.224,1577.258 291.055,1854.485 320.887,1782.463 	"/>-->
<!--	<polygon points="77.948,2536.765 0.008,2536.765 212.172,2748.945 212.172,2670.99 	"/>-->
<!--	<polygon points="276.384,3460.843 204.363,3490.675 481.589,3605.506 451.757,3533.485 	"/>-->
<!--	<polygon points="813.345,4238.641 758.222,4293.764 1058.29,4293.764 1003.167,4238.641 	"/>-->
<!--	<polygon points="1607.083,4751.747 1577.25,4823.769 1854.477,4708.938 1782.455,4679.105 	"/>-->
<!--	<polygon points="2536.758,4922.045 2536.758,5000 2748.938,4787.82 2670.982,4787.82 	"/>-->
<!--	<polygon points="3460.835,4723.608 3490.668,4795.629 3605.499,4518.403 3533.477,4548.235 	"/>-->
<!--	<polygon points="4238.634,4186.647 4293.756,4241.77 4293.756,3941.702 4238.634,3996.825 	"/>-->
<!--	<polygon points="4751.739,3392.91 4823.761,3422.742 4708.93,3145.515 4679.098,3217.537 	"/>-->
<!--	<polygon points="4922.037,2463.235 4999.992,2463.235 4787.813,2251.055 4787.813,2329.01 	"/>-->
<!--	<polygon points="4723.601,1539.157 4795.622,1509.325 4518.395,1394.494 4548.228,1466.515 	"/>-->
<!--	<polygon points="4238.634,813.353 4293.756,758.23 4293.756,1058.298 4238.634,1003.175 	"/>-->
<!--	<polygon points="3460.835,276.392 3490.668,204.371 3605.499,481.597 3533.477,451.765 	"/>-->
<!--	<polygon points="2536.758,77.955 2536.758,0 2748.938,212.18 2670.982,212.18 	"/>-->
<!--	<polygon points="1607.083,248.253 1577.25,176.232 1854.477,291.063 1782.455,320.895 	"/>-->
<!--	<polygon points="813.345,761.359 758.222,706.236 1058.29,706.236 1003.167,761.359 	"/>-->
<!--	<polygon points="276.384,1539.157 204.363,1509.325 481.589,1394.494 451.757,1466.515 	"/>-->
<!--	<polygon points="77.948,2463.235 0.008,2463.235 212.172,2251.055 212.172,2329.01 	"/>-->
<!--	<polygon points="248.245,3392.91 176.224,3422.742 291.055,3145.515 320.887,3217.537 	"/>-->
<!--	<polygon points="761.351,4186.647 706.228,4241.77 706.228,3941.702 761.351,3996.825 	"/>-->
<!--	<polygon points="1539.149,4723.608 1509.317,4795.629 1394.486,4518.403 1466.507,4548.235 	"/>-->
<!--	<polygon points="2463.227,4922.045 2463.227,5000 2251.047,4787.82 2329.002,4787.82 	"/>-->
<!--	<polygon points="3392.902,4751.747 3422.734,4823.769 3145.508,4708.938 3217.529,4679.105 	"/>-->
<!--	<polygon points="4186.64,4238.641 4241.762,4293.764 3941.695,4293.764 3996.817,4238.641 	"/>-->
<!--	<polygon points="4723.601,3460.843 4795.622,3490.675 4518.395,3605.506 4548.228,3533.485 	"/>-->
<!--	<polygon points="4922.037,2536.765 4999.992,2536.765 4787.813,2748.945 4787.813,2670.99 	"/>-->
<!--	<polygon points="4751.739,1607.09 4823.761,1577.258 4708.93,1854.485 4679.098,1782.463 	"/>-->
<!--	<polygon points="3651.557,1273.607 3651.557,1296.442 3674.392,1273.607 	"/>-->
<!--	<polygon points="3094.579,926.276 3103.317,947.373 3115.676,917.538 	"/>-->
<!--	<polygon points="2447.081,818.531 2463.228,834.677 2463.228,802.384 	"/>-->
<!--	<polygon points="1807.638,966.773 1828.735,975.512 1816.376,945.676 	"/>-->
<!--	<polygon points="1273.6,1348.436 1296.435,1348.436 1273.6,1325.601 	"/>-->
<!--	<polygon points="926.269,1905.413 947.365,1896.675 917.53,1884.317 	"/>-->
<!--	<polygon points="818.523,2552.912 834.67,2536.765 802.376,2536.765 	"/>-->
<!--	<polygon points="966.765,3192.354 975.504,3171.258 945.669,3183.616 	"/>-->
<!--	<polygon points="1348.428,3726.393 1348.428,3703.558 1325.593,3726.393 	"/>-->
<!--	<polygon points="1905.406,4073.724 1896.667,4052.627 1884.309,4082.462 	"/>-->
<!--	<polygon points="2552.904,4181.47 2536.757,4165.323 2536.757,4197.616 	"/>-->
<!--	<polygon points="3192.347,4033.227 3171.25,4024.488 3183.608,4054.324 	"/>-->
<!--	<polygon points="3726.385,3651.564 3703.55,3651.564 3726.385,3674.399 	"/>-->
<!--	<polygon points="4073.716,3094.586 4052.619,3103.325 4082.455,3115.683 	"/>-->
<!--	<polygon points="4181.462,2447.088 4165.315,2463.235 4197.608,2463.235 	"/>-->
<!--	<polygon points="4033.219,1807.646 4024.48,1828.742 4054.316,1816.384 	"/>-->
<!--	<polygon points="3726.385,1348.436 3703.55,1348.436 3726.385,1325.601 	"/>-->
<!--	<polygon points="3192.347,966.773 3171.25,975.512 3183.608,945.676 	"/>-->
<!--	<polygon points="2552.904,818.531 2536.757,834.677 2536.757,802.384 	"/>-->
<!--	<polygon points="1905.406,926.276 1896.667,947.373 1884.309,917.538 	"/>-->
<!--	<polygon points="1348.428,1273.607 1348.428,1296.442 1325.593,1273.607 	"/>-->
<!--	<polygon points="966.765,1807.646 975.504,1828.742 945.669,1816.384 	"/>-->
<!--	<polygon points="818.523,2447.088 834.67,2463.235 802.376,2463.235 	"/>-->
<!--	<polygon points="926.269,3094.586 947.365,3103.325 917.53,3115.683 	"/>-->
<!--	<polygon points="1273.6,3651.564 1296.435,3651.564 1273.6,3674.399 	"/>-->
<!--	<polygon points="1807.638,4033.227 1828.735,4024.488 1816.376,4054.324 	"/>-->
<!--	<polygon points="2447.081,4181.47 2463.228,4165.323 2463.228,4197.616 	"/>-->
<!--	<polygon points="3094.579,4073.724 3103.317,4052.627 3115.676,4082.462 	"/>-->
<!--	<polygon points="3651.557,3726.393 3651.557,3703.558 3674.392,3726.393 	"/>-->
<!--	<polygon points="4033.219,3192.354 4024.48,3171.258 4054.316,3183.616 	"/>-->
<!--	<polygon points="4181.462,2552.912 4165.315,2536.765 4197.608,2536.765 	"/>-->
<!--	<polygon points="4073.716,1905.413 4052.619,1896.675 4082.455,1884.317 	"/>-->
<!--	<polygon points="3690.537,1257.462 3674.392,1273.607 3706.682,1273.607 	"/>-->
<!--	<polygon points="3124.413,896.443 3115.676,917.538 3145.508,905.181 	"/>-->
<!--	<polygon points="2463.227,779.551 2463.228,802.384 2486.06,779.551 	"/>-->
<!--	<polygon points="1807.639,924.582 1816.376,945.676 1828.733,915.844 	"/>-->
<!--	<polygon points="1257.454,1309.456 1273.6,1325.601 1273.6,1293.31 	"/>-->
<!--	<polygon points="896.435,1875.579 917.53,1884.317 905.173,1854.484 	"/>-->
<!--	<polygon points="779.543,2536.765 802.376,2536.765 779.543,2513.932 	"/>-->
<!--	<polygon points="924.574,3192.354 945.669,3183.616 915.836,3171.259 	"/>-->
<!--	<polygon points="1309.448,3742.538 1325.593,3726.393 1293.302,3726.393 	"/>-->
<!--	<polygon points="1875.571,4103.557 1884.309,4082.462 1854.476,4094.819 	"/>-->
<!--	<polygon points="2536.757,4220.449 2536.757,4197.616 2513.924,4220.449 	"/>-->
<!--	<polygon points="3192.346,4075.418 3183.608,4054.324 3171.251,4084.156 	"/>-->
<!--	<polygon points="3742.53,3690.544 3726.385,3674.399 3726.385,3706.69 	"/>-->
<!--	<polygon points="4103.549,3124.421 4082.455,3115.683 4094.812,3145.516 	"/>-->
<!--	<polygon points="4220.441,2463.235 4197.608,2463.235 4220.441,2486.068 	"/>-->
<!--	<polygon points="4075.411,1807.646 4054.316,1816.384 4084.148,1828.741 	"/>-->
<!--	<polygon points="3742.53,1309.456 3726.385,1325.601 3726.385,1293.31 	"/>-->
<!--	<polygon points="3192.346,924.582 3183.608,945.676 3171.251,915.844 	"/>-->
<!--	<polygon points="2536.757,779.551 2536.757,802.384 2513.924,779.551 	"/>-->
<!--	<polygon points="1875.571,896.443 1884.309,917.538 1854.476,905.181 	"/>-->
<!--	<polygon points="1309.448,1257.462 1325.593,1273.607 1293.302,1273.607 	"/>-->
<!--	<polygon points="924.574,1807.646 945.669,1816.384 915.836,1828.741 	"/>-->
<!--	<polygon points="779.543,2463.235 802.376,2463.235 779.543,2486.068 	"/>-->
<!--	<polygon points="896.435,3124.421 917.53,3115.683 905.173,3145.516 	"/>-->
<!--	<polygon points="1257.454,3690.544 1273.6,3674.399 1273.6,3706.69 	"/>-->
<!--	<polygon points="1807.639,4075.418 1816.376,4054.324 1828.733,4084.156 	"/>-->
<!--	<polygon points="2463.227,4220.449 2463.228,4197.616 2486.06,4220.449 	"/>-->
<!--	<polygon points="3124.413,4103.557 3115.676,4082.462 3145.508,4094.819 	"/>-->
<!--	<polygon points="3690.537,3742.538 3674.392,3726.393 3706.682,3726.393 	"/>-->
<!--	<polygon points="4075.411,3192.354 4054.316,3183.616 4084.148,3171.259 	"/>-->
<!--	<polygon points="4220.441,2536.765 4197.608,2536.765 4220.441,2513.932 	"/>-->
<!--	<polygon points="4103.549,1875.579 4082.455,1884.317 4094.812,1854.484 	"/>-->
<!--	<polygon points="4293.756,1301.445 4322.365,1313.295 4340.1,1270.479 4293.756,1270.479 	"/>-->
<!--	<polygon points="4615.881,2079.124 4637.777,2101.02 4670.547,2068.25 4627.731,2050.515 	"/>-->
<!--	<polygon points="4615.881,2920.876 4627.731,2949.485 4670.547,2931.75 4637.777,2898.98 	"/>-->
<!--	<polygon points="4293.756,3698.555 4293.756,3729.521 4340.1,3729.521 4322.365,3686.705 	"/>-->
<!--	<polygon points="3698.547,4293.764 3686.697,4322.373 3729.513,4340.108 3729.513,4293.764 	"/>-->
<!--	<polygon points="2920.869,4615.889 2898.973,4637.785 2931.742,4670.555 2949.478,4627.739 	"/>-->
<!--	<polygon points="2079.116,4615.889 2050.507,4627.739 2068.242,4670.555 2101.012,4637.785 	"/>-->
<!--	<polygon points="1301.438,4293.764 1270.472,4293.764 1270.472,4340.108 1313.288,4322.373 	"/>-->
<!--	<polygon points="706.228,3698.555 677.62,3686.705 659.885,3729.521 706.228,3729.521 	"/>-->
<!--	<polygon points="384.103,2920.876 362.207,2898.98 329.437,2931.75 372.253,2949.485 	"/>-->
<!--	<polygon points="384.103,2079.124 372.253,2050.515 329.437,2068.25 362.207,2101.02 	"/>-->
<!--	<polygon points="706.228,1301.445 706.228,1270.479 659.885,1270.479 677.62,1313.295 	"/>-->
<!--	<polygon points="1301.438,706.236 1313.288,677.627 1270.472,659.892 1270.472,706.236 	"/>-->
<!--	<polygon points="2079.116,384.111 2101.012,362.215 2068.242,329.445 2050.507,372.261 	"/>-->
<!--	<polygon points="2920.869,384.111 2949.478,372.261 2931.742,329.445 2898.973,362.215 	"/>-->
<!--	<polygon points="3698.547,706.236 3729.513,706.236 3729.513,659.892 3686.697,677.627 	"/>-->
	<polygon points="4392.783,1235.278 4446.375,1364.662 4518.395,1394.494 4439.513,1204.054 4293.756,1058.298 4293.756,1136.252 	
		"/>
	<polygon points="4732.691,2055.889 4732.691,2195.933 4787.813,2251.055 4787.813,2044.924 4708.93,1854.485 4679.098,1926.505 	
		"/>
	<polygon points="4732.691,2944.111 4679.098,3073.495 4708.93,3145.515 4787.813,2955.076 4787.813,2748.945 4732.691,2804.067 	
		"/>
	<polygon points="4392.783,3764.722 4293.756,3863.748 4293.756,3941.702 4439.513,3795.946 4518.395,3605.506 4446.375,3635.338 	
		"/>
<!--	<polygon points="3764.714,4392.791 3635.33,4446.383 3605.499,4518.403 3795.938,4439.52 3941.695,4293.764 3863.741,4293.764 	"/>-->
<!--	<polygon points="2944.104,4732.698 2804.059,4732.698 2748.938,4787.82 2955.068,4787.82 3145.508,4708.938 3073.488,4679.106 	"/>-->
<!--	<polygon points="2055.881,4732.698 1926.497,4679.106 1854.477,4708.938 2044.917,4787.82 2251.047,4787.82 2195.925,4732.698 	"/>-->
<!--	<polygon points="1235.27,4392.791 1136.244,4293.764 1058.29,4293.764 1204.046,4439.52 1394.486,4518.403 1364.654,4446.383 	"/>-->
<!--	<polygon points="607.202,3764.722 553.609,3635.338 481.589,3605.506 560.472,3795.946 706.228,3941.702 706.228,3863.748 	"/>-->
<!--	<polygon points="267.294,2944.111 267.294,2804.067 212.172,2748.945 212.172,2955.076 291.055,3145.515 320.887,3073.495 	"/>-->
<!--	<polygon points="267.294,2055.889 320.887,1926.505 291.055,1854.485 212.172,2044.924 212.172,2251.055 267.294,2195.933 	"/>-->
<!--	<polygon points="607.202,1235.278 706.228,1136.252 706.228,1058.298 560.472,1204.054 481.589,1394.494 553.609,1364.662 	"/>-->
<!--	<polygon points="1235.27,607.21 1364.654,553.617 1394.486,481.597 1204.046,560.48 1058.29,706.236 1136.244,706.236 	"/>-->
<!--	<polygon points="2055.881,267.302 2195.925,267.302 2251.047,212.18 2044.917,212.18 1854.477,291.063 1926.497,320.894 	"/>-->
<!--	<polygon points="2944.104,267.302 3073.488,320.894 3145.508,291.063 2955.068,212.18 2748.938,212.18 2804.059,267.302 	"/>-->
<!--	<polygon points="3764.714,607.21 3863.741,706.236 3941.695,706.236 3795.938,560.48 3605.499,481.597 3635.33,553.617 	"/>-->
	<polygon points="3430.388,1107.564 3596.431,1273.607 3651.557,1273.607 3651.557,1218.482 3474.549,1041.474 3243.276,945.678 
		3192.347,966.773 3213.442,1017.702 	"/>
	<polygon points="3892.428,1569.604 3982.29,1786.55 4033.219,1807.646 4054.315,1756.716 3958.519,1525.444 3781.51,1348.436 
		3726.385,1348.436 3726.385,1403.561 	"/>
	<polygon points="4142.482,2173.288 4142.482,2408.109 4181.462,2447.088 4220.441,2408.109 4220.441,2157.781 4124.645,1926.509 
		4073.716,1905.413 4052.62,1956.343 	"/>
	<polygon points="4142.482,2826.712 4052.62,3043.657 4073.716,3094.586 4124.645,3073.491 4220.441,2842.219 4220.441,2591.891 
		4181.462,2552.912 4142.482,2591.891 	"/>
	<polygon points="3892.428,3430.396 3726.385,3596.439 3726.385,3651.564 3781.51,3651.564 3958.519,3474.556 4054.315,3243.284 
		4033.219,3192.354 3982.29,3213.45 	"/>
	<polygon points="3430.388,3892.436 3213.442,3982.298 3192.347,4033.227 3243.276,4054.323 3474.549,3958.526 3651.557,3781.518 
		3651.557,3726.393 3596.431,3726.393 	"/>
	<polygon points="2826.704,4142.49 2591.884,4142.49 2552.904,4181.47 2591.884,4220.449 2842.211,4220.449 3073.483,4124.653 
		3094.579,4073.724 3043.649,4052.628 	"/>
	<polygon points="2173.281,4142.49 1956.335,4052.628 1905.406,4073.724 1926.501,4124.653 2157.774,4220.449 2408.101,4220.449 
		2447.081,4181.47 2408.101,4142.49 	"/>
	<polygon points="1569.596,3892.436 1403.553,3726.393 1348.428,3726.393 1348.428,3781.518 1525.436,3958.526 1756.708,4054.323 
		1807.638,4033.227 1786.542,3982.298 	"/>
	<polygon points="1107.557,3430.396 1017.695,3213.45 966.765,3192.354 945.67,3243.284 1041.466,3474.556 1218.474,3651.564 
		1273.6,3651.564 1273.6,3596.439 	"/>
	<polygon points="857.502,2826.712 857.502,2591.891 818.523,2552.912 779.543,2591.891 779.543,2842.219 875.339,3073.491 
		926.269,3094.586 947.364,3043.657 	"/>
	<polygon points="857.502,2173.288 947.364,1956.343 926.269,1905.413 875.339,1926.509 779.543,2157.781 779.543,2408.109 
		818.523,2447.088 857.502,2408.109 	"/>
	<polygon points="1107.557,1569.604 1273.6,1403.561 1273.6,1348.436 1218.474,1348.436 1041.466,1525.444 945.67,1756.716 
		966.765,1807.646 1017.695,1786.55 	"/>
	<polygon points="1569.596,1107.564 1786.542,1017.702 1807.638,966.773 1756.708,945.678 1525.436,1041.474 1348.428,1218.482 
		1348.428,1273.607 1403.553,1273.607 	"/>
	<polygon points="2173.281,857.51 2408.101,857.51 2447.081,818.531 2408.101,779.551 2157.774,779.551 1926.501,875.347 
		1905.406,926.276 1956.335,947.372 	"/>
	<polygon points="2826.704,857.51 3043.649,947.372 3094.579,926.276 3073.483,875.347 2842.211,779.551 2591.884,779.551 
		2552.904,818.531 2591.884,857.51 	"/>
<!--	<polygon points="4238.634,761.359 4186.64,761.359 4091.728,856.27 4143.722,908.264 4238.634,813.353 	"/>-->
<!--	<polygon points="4771.637,1559.054 4723.601,1539.157 4599.593,1590.523 4627.731,1658.456 4751.739,1607.09 	"/>-->
<!--	<polygon points="4958.802,2500 4922.037,2463.235 4787.812,2463.235 4787.812,2536.765 4922.037,2536.765 	"/>-->
<!--	<polygon points="4771.637,3440.946 4751.739,3392.91 4627.731,3341.544 4599.593,3409.477 4723.601,3460.843 	"/>-->
<!--	<polygon points="4238.634,4238.641 4238.634,4186.647 4143.722,4091.736 4091.728,4143.73 4186.64,4238.641 	"/>-->
<!--	<polygon points="3440.938,4771.644 3460.835,4723.608 3409.469,4599.601 3341.536,4627.739 3392.902,4751.747 	"/>-->
<!--	<polygon points="2499.992,4958.81 2536.758,4922.045 2536.757,4787.82 2463.227,4787.82 2463.227,4922.045 	"/>-->
<!--	<polygon points="1559.046,4771.644 1607.083,4751.747 1658.448,4627.739 1590.515,4599.601 1539.149,4723.608 	"/>-->
<!--	<polygon points="761.351,4238.641 813.345,4238.641 908.256,4143.73 856.263,4091.736 761.351,4186.647 	"/>-->
<!--	<polygon points="228.348,3440.946 276.384,3460.843 400.392,3409.477 372.253,3341.544 248.245,3392.91 	"/>-->
<!--	<polygon points="41.182,2500 77.948,2536.765 212.172,2536.765 212.172,2463.235 77.948,2463.235 	"/>-->
<!--	<polygon points="228.348,1559.054 248.245,1607.09 372.253,1658.456 400.392,1590.523 276.384,1539.157 	"/>-->
<!--	<polygon points="761.351,761.359 761.351,813.353 856.263,908.264 908.256,856.27 813.345,761.359 	"/>-->
<!--	<polygon points="1559.046,228.356 1539.149,276.392 1590.515,400.399 1658.448,372.261 1607.083,248.253 	"/>-->
<!--	<polygon points="2499.992,41.19 2463.227,77.955 2463.227,212.18 2536.757,212.18 2536.758,77.955 	"/>-->
<!--	<polygon points="3440.938,228.356 3392.902,248.253 3341.536,372.261 3409.469,400.399 3460.835,276.392 	"/>-->
<!--	<polygon points="3726.385,1273.607 3706.682,1273.607 3726.385,1293.31 	"/>-->
<!--	<polygon points="4102.352,1836.281 4084.148,1828.741 4094.812,1854.484 	"/>-->
<!--	<polygon points="4234.374,2500 4220.441,2486.068 4220.441,2513.932 	"/>-->
<!--	<polygon points="4102.352,3163.719 4094.812,3145.516 4084.148,3171.259 	"/>-->
<!--	<polygon points="3726.385,3726.393 3726.385,3706.69 3706.682,3726.393 	"/>-->
<!--	<polygon points="3163.711,4102.359 3171.251,4084.156 3145.508,4094.819 	"/>-->
<!--	<polygon points="2499.992,4234.381 2513.924,4220.449 2486.06,4220.449 	"/>-->
<!--	<polygon points="1836.273,4102.359 1854.476,4094.819 1828.733,4084.156 	"/>-->
<!--	<polygon points="1273.6,3726.393 1293.302,3726.393 1273.6,3706.69 	"/>-->
<!--	<polygon points="897.633,3163.719 915.836,3171.259 905.173,3145.516 	"/>-->
<!--	<polygon points="765.611,2500 779.543,2513.932 779.543,2486.068 	"/>-->
<!--	<polygon points="897.633,1836.281 905.173,1854.484 915.836,1828.741 	"/>-->
<!--	<polygon points="1273.6,1273.607 1273.6,1293.31 1293.302,1273.607 	"/>-->
<!--	<polygon points="1836.273,897.641 1828.733,915.844 1854.476,905.181 	"/>-->
<!--	<polygon points="2499.992,765.619 2486.06,779.551 2513.924,779.551 	"/>-->
<!--	<polygon points="3163.711,897.641 3145.508,905.181 3171.251,915.844 	"/>-->
<!--	<polygon points="4091.728,856.27 3996.817,761.359 3918.864,761.359 4052.751,895.247 	"/>-->
<!--	<polygon points="3341.536,372.261 3217.529,320.895 3145.509,350.726 3320.442,423.186 	"/>-->
<!--	<polygon points="2463.227,212.18 2329.002,212.18 2273.881,267.301 2463.227,267.302 	"/>-->
<!--	<polygon points="1590.515,400.399 1466.507,451.765 1436.676,523.785 1611.609,451.325 	"/>-->
<!--	<polygon points="856.263,908.264 761.351,1003.175 761.351,1081.129 895.239,947.241 	"/>-->
<!--	<polygon points="372.253,1658.456 320.887,1782.463 350.719,1854.483 423.179,1679.55 	"/>-->
<!--	<polygon points="212.172,2536.765 212.172,2670.99 267.294,2726.112 267.294,2536.765 	"/>-->
<!--	<polygon points="400.392,3409.477 451.757,3533.485 523.777,3563.317 451.317,3388.383 	"/>-->
<!--	<polygon points="908.256,4143.73 1003.167,4238.641 1081.121,4238.641 947.233,4104.753 	"/>-->
<!--	<polygon points="1658.448,4627.739 1782.455,4679.105 1854.475,4649.273 1679.542,4576.813 	"/>-->
<!--	<polygon points="2536.757,4787.82 2670.982,4787.82 2726.104,4732.699 2536.757,4732.698 	"/>-->
<!--	<polygon points="3409.469,4599.601 3533.477,4548.235 3563.309,4476.215 3388.375,4548.675 	"/>-->
<!--	<polygon points="4143.722,4091.736 4238.634,3996.825 4238.634,3918.871 4104.745,4052.759 	"/>-->
<!--	<polygon points="4627.731,3341.544 4679.098,3217.537 4649.266,3145.517 4576.806,3320.45 	"/>-->
<!--	<polygon points="4787.812,2463.235 4787.813,2329.01 4732.691,2273.888 4732.69,2463.235 	"/>-->
<!--	<polygon points="4599.593,1590.523 4548.228,1466.515 4476.208,1436.683 4548.667,1611.617 	"/>-->
<!--	<polygon points="4143.722,908.264 4238.634,1003.175 4238.634,1081.129 4104.745,947.241 	"/>-->
<!--	<polygon points="3409.469,400.399 3533.477,451.765 3563.309,523.785 3388.375,451.325 	"/>-->
<!--	<polygon points="2536.757,212.18 2670.982,212.18 2726.104,267.301 2536.757,267.302 	"/>-->
<!--	<polygon points="1658.448,372.261 1782.455,320.895 1854.475,350.726 1679.542,423.186 	"/>-->
<!--	<polygon points="908.256,856.27 1003.167,761.359 1081.121,761.359 947.233,895.247 	"/>-->
<!--	<polygon points="400.392,1590.523 451.757,1466.515 523.777,1436.683 451.317,1611.617 	"/>-->
<!--	<polygon points="212.172,2463.235 212.172,2329.01 267.294,2273.888 267.294,2463.235 	"/>-->
<!--	<polygon points="372.253,3341.544 320.887,3217.537 350.719,3145.517 423.179,3320.45 	"/>-->
<!--	<polygon points="856.263,4091.736 761.351,3996.825 761.351,3918.871 895.239,4052.759 	"/>-->
<!--	<polygon points="1590.515,4599.601 1466.507,4548.235 1436.676,4476.215 1611.609,4548.675 	"/>-->
<!--	<polygon points="2463.227,4787.82 2329.002,4787.82 2273.881,4732.699 2463.227,4732.698 	"/>-->
<!--	<polygon points="3341.536,4627.739 3217.529,4679.105 3145.509,4649.273 3320.442,4576.813 	"/>-->
<!--	<polygon points="4091.728,4143.73 3996.817,4238.641 3918.864,4238.641 4052.751,4104.753 	"/>-->
<!--	<polygon points="4599.593,3409.477 4548.228,3533.485 4476.208,3563.317 4548.667,3388.383 	"/>-->
<!--	<polygon points="4787.812,2536.765 4787.813,2670.99 4732.691,2726.112 4732.69,2536.765 	"/>-->
<!--	<polygon points="4627.731,1658.456 4679.098,1782.463 4649.266,1854.483 4576.806,1679.55 	"/>-->
	<polygon points="3651.557,776.562 3651.557,1218.482 3690.537,1257.462 3729.513,1218.486 3729.513,761.359 3661.715,761.359 
		3635.77,698.722 3213.44,873.657 3192.346,924.582 3243.276,945.678 	"/>
	<polygon points="4223.43,1348.436 4054.315,1756.716 4075.411,1807.646 4126.335,1786.552 4301.271,1364.222 4238.634,1338.277 
		4238.634,1270.479 3781.507,1270.479 3742.53,1309.456 3781.51,1348.436 	"/>
	<polygon points="4532.926,2095.625 4220.441,2408.109 4220.441,2463.235 4275.562,2463.235 4598.8,2139.997 4550.859,2092.057 
		4576.805,2029.42 4154.475,1854.485 4103.549,1875.579 4124.645,1926.509 	"/>
	<polygon points="4532.926,2904.375 4124.645,3073.491 4103.549,3124.421 4154.475,3145.515 4576.805,2970.58 4550.859,2907.943 
		4598.8,2860.003 4275.562,2536.765 4220.441,2536.765 4220.441,2591.891 	"/>
	<polygon points="4223.43,3651.564 3781.51,3651.564 3742.53,3690.544 3781.507,3729.521 4238.634,3729.521 4238.634,3661.723 
		4301.271,3635.778 4126.335,3213.448 4075.411,3192.354 4054.315,3243.284 	"/>
	<polygon points="3651.557,4223.438 3243.276,4054.323 3192.346,4075.418 3213.44,4126.343 3635.77,4301.278 3661.715,4238.641 
		3729.513,4238.641 3729.513,3781.514 3690.537,3742.538 3651.557,3781.518 	"/>
	<polygon points="2904.368,4532.934 2591.884,4220.449 2536.757,4220.449 2536.757,4275.57 2859.995,4598.808 2907.935,4550.867 
		2970.572,4576.813 3145.507,4154.482 3124.413,4103.557 3073.483,4124.653 	"/>
	<polygon points="2095.617,4532.934 1926.501,4124.653 1875.571,4103.557 1854.478,4154.482 2029.412,4576.813 2092.05,4550.867 
		2139.99,4598.808 2463.227,4275.57 2463.227,4220.449 2408.101,4220.449 	"/>
	<polygon points="1348.428,4223.438 1348.428,3781.518 1309.448,3742.538 1270.472,3781.514 1270.472,4238.641 1338.269,4238.641 
		1364.214,4301.278 1786.545,4126.343 1807.639,4075.418 1756.708,4054.323 	"/>
	<polygon points="776.555,3651.564 945.67,3243.284 924.574,3192.354 873.649,3213.448 698.714,3635.778 761.351,3661.723 
		761.351,3729.521 1218.478,3729.521 1257.454,3690.544 1218.474,3651.564 	"/>
	<polygon points="467.059,2904.375 779.543,2591.891 779.543,2536.765 724.422,2536.765 401.185,2860.003 449.125,2907.943 
		423.18,2970.58 845.51,3145.515 896.435,3124.421 875.339,3073.491 	"/>
	<polygon points="467.059,2095.625 875.339,1926.509 896.435,1875.579 845.51,1854.485 423.18,2029.42 449.125,2092.057 
		401.185,2139.997 724.422,2463.235 779.543,2463.235 779.543,2408.109 	"/>
	<polygon points="776.555,1348.436 1218.474,1348.436 1257.454,1309.456 1218.478,1270.479 761.351,1270.479 761.351,1338.277 
		698.714,1364.222 873.649,1786.552 924.574,1807.646 945.67,1756.716 	"/>
	<polygon points="1348.428,776.562 1756.708,945.678 1807.639,924.582 1786.545,873.657 1364.214,698.722 1338.269,761.359 
		1270.472,761.359 1270.472,1218.486 1309.448,1257.462 1348.428,1218.482 	"/>
	<polygon points="2095.617,467.067 2408.101,779.551 2463.227,779.551 2463.227,724.43 2139.99,401.193 2092.05,449.133 
		2029.412,423.188 1854.478,845.518 1875.571,896.443 1926.501,875.347 	"/>
	<polygon points="2904.368,467.067 3073.483,875.347 3124.413,896.443 3145.507,845.518 2970.572,423.188 2907.935,449.133 
		2859.995,401.193 2536.757,724.43 2536.757,779.551 2591.884,779.551 	"/>
<!--	<polygon points="3918.864,761.359 3863.741,706.236 3729.513,706.236 3729.513,761.359 	"/>-->
<!--	<polygon points="3145.509,350.726 3073.488,320.894 2949.478,372.261 2970.572,423.188 	"/>-->
<!--	<polygon points="2273.881,267.301 2195.925,267.302 2101.012,362.215 2139.99,401.193 	"/>-->
<!--	<polygon points="1436.676,523.785 1364.654,553.617 1313.288,677.627 1364.214,698.722 	"/>-->
<!--	<polygon points="761.351,1081.129 706.228,1136.252 706.228,1270.479 761.351,1270.479 	"/>-->
<!--	<polygon points="350.719,1854.483 320.887,1926.505 372.253,2050.515 423.18,2029.42 	"/>-->
<!--	<polygon points="267.294,2726.112 267.294,2804.067 362.207,2898.98 401.185,2860.003 	"/>-->
<!--	<polygon points="523.777,3563.317 553.609,3635.338 677.62,3686.705 698.714,3635.778 	"/>-->
<!--	<polygon points="1081.121,4238.641 1136.244,4293.764 1270.472,4293.764 1270.472,4238.641 	"/>-->
<!--	<polygon points="1854.475,4649.273 1926.497,4679.106 2050.507,4627.739 2029.412,4576.813 	"/>-->
<!--	<polygon points="2726.104,4732.699 2804.059,4732.698 2898.973,4637.785 2859.995,4598.808 	"/>-->
<!--	<polygon points="3563.309,4476.215 3635.33,4446.383 3686.697,4322.373 3635.77,4301.278 	"/>-->
<!--	<polygon points="4238.634,3918.871 4293.756,3863.748 4293.756,3729.521 4238.634,3729.521 	"/>-->
<!--	<polygon points="4649.266,3145.517 4679.098,3073.495 4627.731,2949.485 4576.805,2970.58 	"/>-->
<!--	<polygon points="4732.691,2273.888 4732.691,2195.933 4637.777,2101.02 4598.8,2139.997 	"/>-->
<!--	<polygon points="4476.208,1436.683 4446.375,1364.662 4322.365,1313.295 4301.271,1364.222 	"/>-->
<!--	<polygon points="4238.634,1081.129 4293.756,1136.252 4293.756,1270.479 4238.634,1270.479 	"/>-->
<!--	<polygon points="3563.309,523.785 3635.33,553.617 3686.697,677.627 3635.77,698.722 	"/>-->
<!--	<polygon points="2726.104,267.301 2804.059,267.302 2898.973,362.215 2859.995,401.193 	"/>-->
<!--	<polygon points="1854.475,350.726 1926.497,320.894 2050.507,372.261 2029.412,423.188 	"/>-->
<!--	<polygon points="1081.121,761.359 1136.244,706.236 1270.472,706.236 1270.472,761.359 	"/>-->
<!--	<polygon points="523.777,1436.683 553.609,1364.662 677.62,1313.295 698.714,1364.222 	"/>-->
<!--	<polygon points="267.294,2273.888 267.294,2195.933 362.207,2101.02 401.185,2139.997 	"/>-->
<!--	<polygon points="350.719,3145.517 320.887,3073.495 372.253,2949.485 423.18,2970.58 	"/>-->
<!--	<polygon points="761.351,3918.871 706.228,3863.748 706.228,3729.521 761.351,3729.521 	"/>-->
<!--	<polygon points="1436.676,4476.215 1364.654,4446.383 1313.288,4322.373 1364.214,4301.278 	"/>-->
<!--	<polygon points="2273.881,4732.699 2195.925,4732.698 2101.012,4637.785 2139.99,4598.808 	"/>-->
<!--	<polygon points="3145.509,4649.273 3073.488,4679.106 2949.478,4627.739 2970.572,4576.813 	"/>-->
<!--	<polygon points="3918.864,4238.641 3863.741,4293.764 3729.513,4293.764 3729.513,4238.641 	"/>-->
<!--	<polygon points="4476.208,3563.317 4446.375,3635.338 4322.365,3686.705 4301.271,3635.778 	"/>-->
<!--	<polygon points="4732.691,2726.112 4732.691,2804.067 4637.777,2898.98 4598.8,2860.003 	"/>-->
<!--	<polygon points="4649.266,1854.483 4679.098,1926.505 4627.731,2050.515 4576.805,2029.42 	"/>-->
<!--	<polygon points="4052.751,895.247 3729.513,1218.486 3729.513,1270.479 3781.507,1270.479 4104.745,947.241 	"/>-->
<!--	<polygon points="4548.667,1611.617 4126.335,1786.552 4106.438,1834.588 4154.475,1854.485 4576.806,1679.55 	"/>-->
<!--	<polygon points="4732.69,2463.235 4275.562,2463.235 4238.797,2500 4275.562,2536.765 4732.69,2536.765 	"/>-->
<!--	<polygon points="4576.806,3320.45 4154.475,3145.515 4106.438,3165.412 4126.335,3213.448 4548.667,3388.383 	"/>-->
<!--	<polygon points="4104.745,4052.759 3781.507,3729.521 3729.513,3729.521 3729.513,3781.514 4052.751,4104.753 	"/>-->
<!--	<polygon points="3388.375,4548.675 3213.44,4126.343 3165.404,4106.446 3145.507,4154.482 3320.442,4576.813 	"/>-->
<!--	<polygon points="2536.757,4732.698 2536.757,4275.57 2499.992,4238.805 2463.227,4275.57 2463.227,4732.698 	"/>-->
<!--	<polygon points="1679.542,4576.813 1854.478,4154.482 1834.58,4106.446 1786.545,4126.343 1611.609,4548.675 	"/>-->
<!--	<polygon points="947.233,4104.753 1270.472,3781.514 1270.472,3729.521 1218.478,3729.521 895.239,4052.759 	"/>-->
<!--	<polygon points="451.317,3388.383 873.649,3213.448 893.546,3165.412 845.51,3145.515 423.179,3320.45 	"/>-->
<!--	<polygon points="267.294,2536.765 724.422,2536.765 761.187,2500 724.422,2463.235 267.294,2463.235 	"/>-->
<!--	<polygon points="423.179,1679.55 845.51,1854.485 893.546,1834.588 873.649,1786.552 451.317,1611.617 	"/>-->
<!--	<polygon points="895.239,947.241 1218.478,1270.479 1270.472,1270.479 1270.472,1218.486 947.233,895.247 	"/>-->
<!--	<polygon points="1611.609,451.325 1786.545,873.657 1834.58,893.554 1854.478,845.518 1679.542,423.186 	"/>-->
<!--	<polygon points="2463.227,267.302 2463.227,724.43 2499.992,761.195 2536.757,724.43 2536.757,267.302 	"/>-->
<!--	<polygon points="3320.442,423.186 3145.507,845.518 3165.404,893.554 3213.44,873.657 3388.375,451.325 	"/>-->
</g>
</svg>
