<?xml version='1.0' encoding='utf-8'?>
<svg xmlns="http://www.w3.org/2000/svg" version="1.1" width="600px" height="976px" viewBox="0 0 600 976"> <g id="layer1"> <g style="fill:rgb(0,0,0); fill-opacity:1.0; stroke-linejoin: miter"> <path d="M436.41803,428.26312C436.29373,428.35638,436.22125,428.3719,435.86386,428.35638C435.40805,428.34082,434.9212,428.4237,434.82797,428.53247C434.79688,428.5739,434.6933,428.62048,434.6053,428.64124C434.51202,428.6568,434.41364,428.693,434.38776,428.71375C434.35666,428.73962,434.2168,428.78625,434.07697,428.8225C433.93195,428.85358,433.79727,428.9002,433.7662,428.9261C433.7403,428.94684,433.5642,429.00378,433.37775,429.0504C433.19128,429.097,433.0204,429.154,432.9893,429.17468C432.96338,429.19543,432.82355,429.2472,432.67853,429.28345C432.53867,429.3197,432.39886,429.36633,432.36777,429.3871C432.34186,429.4026,432.21237,429.44922,432.0829,429.48547C431.95343,429.51654,431.80322,429.56836,431.74625,429.59424C431.56494,429.6823,431.18686,429.80658,430.81393,429.91016C430.61713,429.96716,430.4048,430.0345,430.34778,430.06036C430.29083,430.08624,430.14063,430.13806,430.01114,430.16913C429.88165,430.20538,429.75735,430.252,429.72626,430.27277C429.70038,430.29346,429.57086,430.3349,429.4414,430.36597C429.31192,430.40222,429.16174,430.44885,429.10474,430.47473C429.04776,430.5006,428.85095,430.5628,428.6645,430.60938C428.47803,430.65082,428.30713,430.70782,428.27606,430.72852C428.25015,430.7544,428.1103,430.80103,427.96527,430.8321C427.82544,430.86835,427.68558,430.91498,427.65454,430.94086C427.6286,430.9616,427.46805,431.00824,427.3075,431.0445C427.14175,431.07556,426.99673,431.12213,426.9812,431.14807C426.96564,431.16876,426.86725,431.20502,426.76367,431.22577C426.6549,431.24646,426.4995,431.2931,426.41147,431.32935C426.32858,431.3656,426.17322,431.42255,426.0748,431.4485C425.51544,431.609,424.9405,431.79028,424.80585,431.8473C424.72296,431.88354,424.55722,431.9301,424.4433,431.95087C424.32935,431.97156,424.2154,432.0078,424.18433,432.02856C424.15845,432.05444,424.11182,432.0752,424.08072,432.08032C424.05484,432.0907,424.00824,432.10107,423.97714,432.10626C423.95123,432.11658,423.79587,432.15283,423.6405,432.1891C423.4851,432.22015,423.3349,432.26678,423.30383,432.28754C423.27792,432.30823,423.12256,432.35486,422.96716,432.3911C422.81177,432.42737,422.6564,432.474,422.6305,432.49988C422.59943,432.52057,422.4596,432.5672,422.31973,432.59827C422.17474,432.63452,421.99344,432.69153,421.9054,432.72778C421.8225,432.76404,421.66196,432.81067,421.5532,432.83136C421.4496,432.85205,421.346,432.8883,421.33047,432.91425C421.2683,433.01782,421.1181,432.9453,420.98346,432.75366C420.90057,432.6397,420.81256,432.5465,420.78665,432.5465C420.75555,432.5465,420.63644,432.4843,420.5173,432.4015C420.26352,432.23572,420.1703,432.20984,420.1651,432.29785C420.15475,432.4015,420.13922,432.46362,420.10812,432.5465C420.0874,432.5879,420.06152,432.75885,420.05118,432.91943C420.0149,433.29236,419.9942,433.32343,419.78702,433.32343C419.6938,433.32343,419.53842,433.35968,419.44516,433.41144C419.2846,433.48914,419.26392,433.48914,419.1396,433.41144C418.8133,433.20947,418.31607,433.00745,418.0623,432.98157C417.90173,432.96082,417.6531,432.97638,417.4718,433.01263C417.19214,433.07477,417.11444,433.1214,416.85547,433.37C416.6276,433.5979,416.5499,433.71704,416.4981,433.919C416.41006,434.27643,416.37378,434.3282,416.20288,434.38C416.12,434.40588,416.00604,434.44214,415.9491,434.46802C415.89212,434.48877,415.7989,434.51465,415.7419,434.52502C415.63315,434.54053,415.14627,434.323,415.14627,434.26086C415.14627,434.24017,415.0841,434.19873,415.00644,434.16248C414.92358,434.12622,414.7682,434.04333,414.65424,433.97083C414.54028,433.89832,414.3642,433.79993,414.26578,433.7533C414.16736,433.70148,414.07416,433.64453,414.06897,433.61865C414.0586,433.5979,413.97574,433.54608,413.8877,433.4995C413.79446,433.45807,413.62872,433.3648,413.51477,433.2975C413.40082,433.22498,413.204,433.1162,413.07452,433.05927C412.94504,432.99707,412.76376,432.8883,412.67053,432.8158C412.4996,432.68634,412.33386,432.5879,411.96094,432.3963C411.63464,432.22534,411.36014,432.06482,411.1219,431.90942C410.9976,431.83173,410.88882,431.7696,410.8733,431.7696C410.85773,431.7696,410.75415,431.7074,410.6402,431.6349C410.4434,431.50024,410.23102,431.3811,409.96686,431.24127C409.89438,431.20502,409.82187,431.15845,409.80634,431.1377C409.77524,431.08588,409.58362,430.9823,408.8326,430.59906C408.5322,430.44366,408.2784,430.30383,408.26288,430.28308C408.23178,430.24164,408.07642,430.164,407.3513,429.82733C407.12338,429.7185,406.9007,429.61493,406.85406,429.59424C406.80746,429.56836,406.5744,429.52173,406.33612,429.49066C406.0979,429.4544,405.85962,429.40778,405.81302,429.3819C405.69907,429.3249,404.64764,429.3197,404.6114,429.3819C404.59586,429.4026,404.47675,429.43884,404.34726,429.4544C403.91736,429.51654,403.54962,429.72888,403.14044,430.15363C402.9333,430.36597,402.75198,430.6042,402.73645,430.6767C402.72092,430.74927,402.68985,430.84766,402.66394,430.8891C402.35834,431.39667,402.35318,431.41223,402.35318,431.85242C402.35318,432.0855,402.3739,432.29272,402.39978,432.30823C402.4205,432.3238,402.4568,432.42737,402.47748,432.54132C402.51373,432.7744,402.67432,433.09552,402.9281,433.45288C403.0265,433.58752,403.099,433.73254,403.08865,433.774C403.0783,433.81543,403.09384,433.83618,403.11972,433.82062C403.1508,433.80505,403.38385,433.96564,403.63766,434.17798C403.89145,434.39038,404.11932,434.56647,404.1349,434.56647C404.15042,434.56647,404.26437,434.6338,404.38348,434.7218C404.49744,434.8047,404.62692,434.8772,404.66837,434.8772C404.70462,434.8772,404.7357,434.89795,404.7357,434.92383C404.7357,434.97565,404.8134,435.02222,405.68872,435.46765C406.02017,435.63342,406.28952,435.79395,406.28952,435.8147C406.28952,435.84058,406.3206,435.86133,406.35684,435.86133C406.3879,435.86646,406.5122,435.95453,406.63135,436.0581C406.78156,436.19794,406.8696,436.33264,406.93176,436.5398C407.06125,436.95416,407.04053,437.0163,406.75565,437.02148C406.52258,437.02667,406.52258,437.02667,406.50705,437.22345C406.49667,437.35297,406.53296,437.50317,406.6158,437.67407L406.7453,437.93304L406.55365,438.0418C406.45007,438.09882,406.33096,438.17133,406.28952,438.1972C406.17038,438.26453,405.68353,438.5235,405.30542,438.70996C405.11896,438.80322,404.92734,438.89642,404.8807,438.9223C404.74088,438.9897,404.60104,438.9793,404.5285,438.89124C404.4405,438.78247,403.9536,438.55457,403.81378,438.55457C403.75677,438.55457,403.69464,438.53387,403.6791,438.508C403.63766,438.4458,403.3269,438.47687,402.99023,438.57013C402.51373,438.70477,402.06314,439.1761,402.00616,439.59045C401.9906,439.7044,401.95438,439.81317,401.93365,439.82867C401.8663,439.87012,401.87665,440.19647,401.95438,440.32074C402.01132,440.414,401.9958,440.44507,401.84042,440.57452C401.742,440.6574,401.6436,440.71442,401.61768,440.69885C401.597,440.68335,401.57626,440.69885,401.57626,440.7248C401.57626,440.75586,401.53482,440.78174,401.48822,440.78174C401.43643,440.78174,400.75275,441.09766,399.97067,441.49133C399.18857,441.87976,398.35986,442.28375,398.13196,442.38733C397.90405,442.4961,397.4949,442.68774,397.2204,442.8224C396.9459,442.9519,396.6921,443.06067,396.661,443.06067C396.62476,443.06067,396.5108,443.10724,396.40723,443.15906C396.00323,443.3766,395.34027,443.6822,395.28848,443.6822C395.2574,443.6822,395.16418,443.71844,395.0813,443.7599C394.99844,443.80652,394.92075,443.8272,394.9052,443.81683C394.89484,443.80133,394.8327,443.81165,394.78088,443.8427C394.62552,443.9256,394.69284,444.26227,394.9259,444.52643C395.02432,444.64557,395.12274,444.81128,395.14343,444.89417C395.20563,445.1324,395.3092,445.12726,395.28848,444.88898C395.2833,444.7802,395.2522,444.64557,395.2315,444.59375C395.18488,444.485,395.3144,444.35547,395.4646,444.35547C395.506,444.35547,395.59406,444.3192,395.65622,444.27783C395.73392,444.226,395.78052,444.2157,395.80124,444.25195C395.82715,444.29333,395.85822,444.29333,395.89966,444.25714C395.9359,444.226,396.10684,444.16907,396.2881,444.12762C396.4642,444.08618,396.6403,444.02917,396.6714,444.0033C396.70764,443.97742,396.8164,443.94116,396.9148,443.92047C397.0132,443.9049,397.15308,443.85828,397.2256,443.82202C397.2981,443.78577,397.47418,443.72363,397.61404,443.6822C397.75903,443.64594,397.8989,443.5993,397.9248,443.57343C397.95587,443.55273,398.08017,443.5113,398.20966,443.47504C398.4272,443.42322,398.70688,443.31445,398.88297,443.22125C398.97104,443.17462,399.09015,443.2005,399.09015,443.273C399.09015,443.2989,399.14713,443.41284,399.21448,443.5216L399.34396,443.72363L399.57703,443.66663C399.7065,443.63556,399.81528,443.59412,399.81528,443.57343C399.81528,443.55273,399.9085,443.5216,400.02762,443.50092C400.19336,443.46985,400.27106,443.4854,400.37982,443.56305C400.54037,443.6822,400.95993,443.89972,400.98065,443.87903C400.99097,443.86865,400.97546,443.7495,400.94955,443.61487C400.90295,443.36108,400.94955,443.16943,401.05832,443.15906C401.13602,443.14868,401.17227,443.13318,401.33282,443.07098C401.4157,443.0348,401.5089,443.0089,401.54,443.0089C401.57626,443.0089,401.6643,442.97778,401.742,442.93634C401.8197,442.8949,401.95953,442.84827,402.05276,442.82758C402.146,442.80682,402.2962,442.76025,402.37906,442.724C402.46713,442.68774,402.81415,442.5738,403.15598,442.46503C403.4978,442.36145,403.84485,442.2423,403.9329,442.20087C404.0779,442.13873,404.09863,442.14392,404.22296,442.26306C404.29544,442.33032,404.3783,442.38733,404.4094,442.38733C404.4405,442.38733,404.47675,442.4184,404.49225,442.45984C404.52335,442.53235,404.82376,442.6256,404.87036,442.57898C404.8859,442.56342,404.86517,442.50128,404.82892,442.44434C404.7305,442.27856,404.82892,442.15942,405.10342,442.12317C405.2329,442.10248,405.41418,442.04034,405.5126,441.98334C405.64728,441.90045,405.74048,441.87976,405.90106,441.90564C406.1393,441.9367,406.24808,441.859,406.3983,441.56897C406.43973,441.49133,406.5122,441.39807,406.56403,441.36182C406.70386,441.25305,407.21664,441.23236,407.35645,441.32556C407.48596,441.40845,407.56366,441.3722,407.4756,441.26343C407.429,441.2116,407.44452,441.1961,407.54294,441.1961C407.61026,441.1961,407.68796,441.17535,407.71387,441.14948C407.84335,441.02515,408.03497,441.07178,408.28876,441.27893C408.59433,441.5379,408.76007,441.62598,408.8326,441.57935C408.86365,441.56378,408.87402,441.51202,408.8585,441.47058C408.84296,441.42914,408.84296,441.3722,408.8585,441.34625C408.88956,441.2945,409.18997,441.72437,409.18997,441.81757C409.18997,441.8435,409.23657,441.87457,409.29358,441.89526C409.3557,441.91602,409.39197,441.96783,409.38678,442.04034C409.3816,442.10248,409.39716,442.2268,409.41788,442.32C409.45932,442.49097,409.38678,442.5893,409.278,442.50128C409.18997,442.43396,408.89993,442.56342,408.79633,442.724C408.71347,442.84827,408.729,443.17462,408.82742,443.3714C408.8533,443.41284,408.89474,443.5216,408.931,443.60968C408.9621,443.69775,409.0553,443.8427,409.13818,443.9308C409.31427,444.12762,409.52664,444.14832,409.72864,443.9878C409.84775,443.89453,409.86328,443.8479,409.86328,443.54755C409.86328,443.2575,409.87366,443.21606,409.96173,443.21606C410.01868,443.21606,410.13782,443.30927,410.2362,443.41803C410.32947,443.53198,410.4434,443.62518,410.4848,443.63556C410.6661,443.6563,410.78522,443.62518,410.89398,443.51642C411.00793,443.41803,411.01312,443.3766,410.9872,443.05548C410.951,442.6515,410.87845,442.48578,410.62466,442.23712C410.4641,442.0869,410.42267,442.07135,410.26727,442.10248C410.17407,442.12317,410.0446,442.18536,409.98242,442.2475L409.86328,442.35107L409.86328,442.2423C409.86328,442.18536,409.84256,442.11798,409.81152,442.10248C409.7856,442.0869,409.7597,442.0041,409.7597,441.9212C409.7597,441.83832,409.73898,441.76062,409.7131,441.74512C409.64575,441.6985,409.6095,441.3825,409.64056,441.07178C409.66647,440.83868,409.69238,440.77655,409.78043,440.75586C409.8374,440.7351,409.93582,440.70404,409.99277,440.67816C410.04974,440.6574,410.30872,440.6056,410.56253,440.57452C410.8215,440.53827,411.05457,440.4917,411.08047,440.47095C411.1115,440.44507,411.37567,440.39844,411.6761,440.36218C411.992,440.32593,412.23544,440.26898,412.25616,440.23273C412.3028,440.1654,412.4685,440.19128,412.63428,440.29486C412.69125,440.33112,412.83112,440.37775,412.94504,440.39844C413.059,440.414,413.1833,440.46063,413.22473,440.4917C413.27133,440.52795,413.608,440.54865,414.1881,440.54865C414.94427,440.54865,415.09967,440.56415,415.17737,440.63153C415.2343,440.67816,415.41562,440.78174,415.58652,440.85944C415.75745,440.93713,416.08374,441.08728,416.31165,441.20123C416.53955,441.31,416.83475,441.42914,416.96942,441.4602C417.0989,441.49652,417.25946,441.56378,417.32162,441.6104C417.42523,441.6881,417.40448,441.70367,416.73636,442.04034C416.35825,442.232,416.0268,442.38733,416.00604,442.38733C415.92838,442.38733,415.1981,442.76544,415.1981,442.80682C415.1981,442.86383,415.312,442.93115,415.52438,443.00372C415.72638,443.07098,415.9698,443.0244,416.20804,442.8742C416.265,442.84314,416.39453,442.7965,416.49292,442.77582C416.5913,442.75507,416.70526,442.7188,416.7519,442.69293C416.79333,442.66705,416.95905,442.61523,417.11444,442.5738C417.40448,442.4961,417.938,442.32,418.12442,442.23712C418.1814,442.21643,418.32123,442.1646,418.4352,442.13354C418.54913,442.0973,418.689,442.05066,418.74597,442.02997C419.036,441.91083,419.23282,441.87457,419.42447,441.90564C419.60056,441.9264,419.65753,441.96265,419.74557,442.12317L419.85434,442.30963L419.82843,442.12317L419.79736,441.9367L420.6779,441.90564C421.15955,441.88495,421.61536,441.8487,421.68784,441.82275C421.7811,441.7865,421.8277,441.7865,421.83804,441.82794C421.86395,441.90045,422.41815,441.89014,422.43884,441.81238C422.4544,441.78137,422.5062,441.7917,422.5787,441.83832C422.68747,441.91083,422.6978,441.91083,422.67194,441.82275C422.64606,441.71918,422.71854,441.6933,423.27792,441.63116C423.76996,441.57935,423.79587,441.5586,423.79587,441.1961C423.79587,440.9682,423.7648,440.8283,423.66638,440.6419L423.53174,440.39844L423.65085,440.30524C423.71817,440.2586,423.82693,440.20166,423.89948,440.1861C424.02893,440.15503,424.45883,439.97894,424.85764,439.79767C424.9716,439.74585,425.12698,439.68372,425.20984,439.66815C425.28754,439.64746,425.34967,439.61115,425.34967,439.59045C425.34967,439.5697,425.41702,439.5387,425.49988,439.52313C425.57758,439.50763,425.76923,439.43506,425.92462,439.36255C426.07996,439.29523,426.2716,439.21753,426.3493,439.20203C426.427,439.18127,426.48914,439.14502,426.48914,439.11914C426.48914,439.09326,426.53058,439.0725,426.58237,439.0725C426.629,439.0725,426.78955,439.01556,426.92938,438.94305C427.0744,438.87573,427.20908,438.81354,427.2298,438.81354C427.2557,438.81354,427.40073,438.7566,427.5561,438.68408C427.7115,438.61157,427.8565,438.55457,427.87723,438.55457C427.89795,438.55457,428.0171,438.5028,428.14655,438.4458C428.48322,438.28528,428.6645,438.20758,428.89758,438.12988C429.01154,438.09363,429.17725,438.02112,429.26013,437.9745C429.34818,437.92273,429.4466,437.8813,429.48285,437.8813C429.5191,437.8813,429.67963,437.82428,429.83502,437.75177C429.99042,437.67926,430.151,437.6223,430.1924,437.6223C430.33743,437.6223,430.2701,437.46692,430.11475,437.43066C430.02667,437.4151,429.9438,437.37885,429.92825,437.35815C429.89203,437.29602,429.50873,437.29602,429.47247,437.35815C429.45175,437.38403,429.34302,437.4203,429.2187,437.44098C429.09955,437.46173,428.93384,437.50836,428.84576,437.5498C428.7163,437.60675,428.2398,437.74658,428.0171,437.7932C427.99118,437.8036,427.94455,437.8191,427.9135,437.83466C427.88757,437.85016,427.74774,437.8968,427.60272,437.92786C427.4629,437.9641,427.29715,438.01593,427.24017,438.03662C427.18317,438.06256,427.04333,438.10913,426.92938,438.14026C426.81543,438.1765,426.6549,438.23346,426.56683,438.2697C426.48398,438.30597,426.2768,438.36298,426.11105,438.39923C425.9453,438.4303,425.7485,438.49243,425.6708,438.53387C425.5931,438.57532,425.4947,438.60638,425.45325,438.60638C425.41183,438.60638,425.3186,438.63745,425.2461,438.6737C425.17358,438.71515,424.9975,438.77216,424.85764,438.80835C424.7178,438.8446,424.57794,438.89124,424.54688,438.912C424.521,438.93787,424.3708,438.9845,424.22058,439.02075C424.07556,439.05182,423.9357,439.10358,423.92017,439.12952C423.90463,439.1554,423.85284,439.1761,423.80106,439.1761C423.68195,439.1761,423.1588,439.34186,423.12256,439.3885C423.107,439.404,423.01895,439.44025,422.92572,439.461C422.7755,439.49207,422.7289,439.4765,422.59943,439.35223C422.51654,439.27454,422.44922,439.18646,422.44922,439.16058C422.44922,439.12952,422.356,439.02075,422.23688,438.912C422.0711,438.7566,422.01935,438.66852,421.99863,438.49243C421.9831,438.3681,421.952,438.24384,421.9313,438.2179C421.9054,438.18683,421.86395,437.93304,421.8329,437.6482C421.79663,437.36334,421.73965,436.99042,421.6982,436.81946C421.6568,436.64856,421.6205,436.3689,421.61017,436.19794C421.5946,435.89758,421.5998,435.8872,421.71893,435.90277C421.81732,435.9131,421.8329,435.8924,421.81213,435.8095C421.78625,435.70074,421.9831,435.49872,422.11255,435.49872C422.21097,435.49872,422.4544,435.29156,422.42334,435.23462C422.36118,435.14136,422.4544,435.0844,422.56317,435.15173C422.64606,435.1983,422.67712,435.1983,422.69263,435.14655C422.7082,435.11548,422.75482,435.0844,422.8066,435.0844C422.8532,435.0844,422.9827,435.03778,423.09146,434.98077C423.2054,434.92383,423.4126,434.84094,423.55762,434.79437C423.70264,434.74774,423.84766,434.69073,423.87357,434.67004C423.90463,434.64935,424.0186,434.60272,424.13254,434.56647C424.24646,434.5302,424.38632,434.46802,424.4433,434.43176C424.65048,434.3023,424.85764,434.29712,424.96124,434.41107C425.04413,434.49915,425.51544,434.77362,425.58792,434.77362C425.62936,434.77362,425.54132,434.42664,425.4481,434.24017L425.34967,434.04852L425.5465,433.96564C425.6501,433.919,425.81064,433.85168,425.89352,433.81543C425.98157,433.78436,426.17838,433.6963,426.33377,433.61865C426.48914,433.54608,426.6808,433.46844,426.76367,433.45288C426.84134,433.4322,426.9035,433.39594,426.9035,433.37518C426.9035,433.3545,426.976,433.32343,427.0692,433.30267C427.1573,433.28717,427.34894,433.2146,427.49915,433.14728C427.64417,433.07477,427.82544,433.00226,427.90314,432.98676C427.98083,432.966,428.04297,432.92975,428.04297,432.90387C428.04297,432.878,428.0844,432.85724,428.13104,432.85724C428.1776,432.85724,428.31747,432.81067,428.44177,432.75366C428.95453,432.51544,429.1203,432.44806,429.3637,432.36523C429.50354,432.3186,429.6486,432.25647,429.69,432.22534C429.73663,432.18396,429.7729,432.1891,429.8195,432.2461C429.9179,432.36523,430.20276,432.5517,430.36853,432.59827C430.51874,432.6397,430.51874,432.6397,430.46173,432.47913C430.43585,432.38593,430.40997,432.23053,430.41516,432.13214C430.4203,431.925,430.50836,431.8473,430.902,431.7074C431.13507,431.62976,431.39923,431.5158,431.7566,431.34485C431.89645,431.27753,431.86536,431.18433,431.62714,430.93054C431.44583,430.7389,431.44064,430.63013,431.61676,430.63013C431.71515,430.63013,431.9845,430.52655,432.03113,430.47473C432.04663,430.45917,432.16058,430.4126,432.29004,430.37634C432.41956,430.3401,432.549,430.28827,432.57495,430.26758C432.60602,430.24164,432.74585,430.1847,432.8857,430.13806C433.03073,430.09143,433.21716,430.0241,433.30005,429.98785C433.6626,429.82733,433.83353,429.75482,434.05624,429.65118C434.18573,429.58905,434.30487,429.54242,434.32556,429.54242C434.34113,429.54242,434.48615,429.48547,434.64154,429.41296C434.79688,429.34045,434.95746,429.28345,434.9937,429.28345C435.02997,429.28345,435.13873,429.23688,435.23196,429.17987C435.3252,429.12292,435.42358,429.0763,435.4495,429.0763C435.4754,429.0763,435.6256,429.01935,435.78098,428.94684C435.93634,428.87427,436.09174,428.81732,436.12283,428.81732C436.15906,428.81732,436.25232,428.77588,436.33002,428.72925C436.47504,428.64642,436.48022,428.64642,436.5838,428.7707C436.64078,428.838,436.68738,428.9209,436.69257,428.95197C436.69257,429.01416,436.95154,429.27313,436.95154,429.21094C436.95154,429.19025,436.9101,429.10736,436.85312,429.03485C436.72882,428.85358,436.677,428.63605,436.68738,428.3615C436.7029,428.1129,436.64078,428.08704,436.41803,428.26312 Z"/> </g> </g> </svg>